<svg width="120" height="48" viewBox="0 0 120 48" fill="none" xmlns="http://www.w3.org/2000/svg">
<g opacity="0.91" clip-path="url(#clip0_8295_3773)">
<path d="M51.989 47.9422C52.0134 47.9105 60.8441 37.1105 71.6127 23.9422L91.1921 0H97.881H104.57L104.562 24L104.554 48H99.0859H93.6182V44.1541V40.3081H90.4921C88.7728 40.3081 83.8143 40.318 79.4731 40.3301L71.5802 40.3521L68.4591 44.1739L65.338 47.9957L58.6412 47.9979C52.2679 47.9999 51.9466 47.9968 51.989 47.9422ZM93.6072 29.5022C93.6133 29.4961 93.6146 25.8766 93.6101 21.4592L93.6019 13.4274L87.0308 21.46C83.4167 25.8779 80.454 29.507 80.4471 29.5248C80.4355 29.5544 93.578 29.5319 93.6072 29.5022ZM109.064 24V0H114.532H120V24V48H114.532H109.064V24ZM0 23.9175V0H42.5576H85.1152L83.4202 2.07209C82.488 3.21173 73.6813 13.9746 63.8499 25.9896L45.9745 47.8349H38.8066H31.6387V39.7964V31.7579H29.3023H26.9659V39.7964V47.8349H25.1487H23.3315L23.331 42.7593C23.3304 36.8924 23.3262 36.7887 23.0394 35.6362C22.4278 33.1786 20.9267 31.8812 18.2207 31.471C17.6551 31.3853 15.8541 31.3851 15.3164 31.471C13.8141 31.7101 12.5639 32.2277 11.6577 32.9856L11.4224 33.1823V29.4331V25.6839H9.08599H6.74959V36.7596V47.8353H3.3748H0V23.9175ZM30.1935 29.9286C30.644 29.7904 30.9028 29.6376 31.2022 29.3331C31.6485 28.879 31.8334 28.4046 31.8334 27.7139C31.8334 26.5673 31.2154 25.7604 30.0973 25.4474C29.8744 25.385 29.7553 25.3747 29.2536 25.3747C28.758 25.3747 28.6317 25.3853 28.4196 25.4449C27.5317 25.6942 26.9449 26.3063 26.7544 27.1821C26.6789 27.5295 26.7014 28.1088 26.8033 28.4402C27.028 29.171 27.6149 29.7349 28.3631 29.9387C28.7222 30.0365 28.7219 30.0365 29.3348 30.0268C29.8435 30.0188 29.9329 30.0086 30.1935 29.9286ZM50.6151 29.2139C52.2672 29.0299 53.4145 28.2425 54.3945 26.6201C54.79 25.9653 55.3659 24.678 58.1738 18.1733C59.3375 15.4774 63.2667 6.32002 63.3333 6.14856C63.346 6.11575 62.804 6.10729 60.6884 6.10729C58.5899 6.10729 58.0241 6.11601 58.0114 6.14856C58.0025 6.17125 57.1165 8.46953 56.0425 11.2559C54.9685 14.0422 54.0793 16.3409 54.0665 16.3641C54.0531 16.3886 53.1386 14.2458 51.8868 11.2568L49.7303 6.10729H47.025C44.8733 6.10729 44.3232 6.11574 44.3367 6.14856C44.3461 6.17125 45.9987 9.66602 48.0092 13.9147C50.7681 19.7449 51.6608 21.6601 51.6485 21.7232C51.627 21.8346 51.0923 23.1383 50.827 23.7262C50.3557 24.7708 49.9372 25.2533 49.3739 25.4016C49.0239 25.4938 47.9372 25.4506 47.3686 25.322C47.259 25.2972 47.2453 25.3016 47.2332 25.3652C47.2258 25.4042 47.1816 26.1937 47.1349 27.1197C47.0883 28.0457 47.047 28.8553 47.0432 28.9188L47.0362 29.0344L47.2634 29.0734C47.5013 29.1143 48.5284 29.2091 48.9183 29.2261C49.5023 29.2516 50.3297 29.2457 50.6151 29.2139ZM36.9281 22.5487C39.0449 22.2586 40.6862 21.5387 42.0922 20.2836C42.4282 19.9837 42.9047 19.4459 43.1501 19.0897L43.2877 18.8899L41.4809 17.9083L39.6741 16.9266L39.5968 17.0218C39.1656 17.5523 38.8051 17.853 38.2585 18.138C37.3534 18.6099 36.3379 18.8121 35.0622 18.7744C32.9625 18.7124 31.3437 17.9241 30.7969 16.6973C30.7092 16.5006 30.6334 16.242 30.5884 15.9863L30.5695 15.879H37.346H44.1226L44.1438 15.6231C44.1555 15.4824 44.1743 14.9884 44.1857 14.5254C44.2087 13.5888 44.1757 13.0647 44.0493 12.3631C43.4474 9.02076 40.9931 6.70499 37.3337 6.02652C36.5674 5.88444 36.2486 5.85963 35.2082 5.86107C34.3719 5.86224 34.1355 5.87384 33.6831 5.93599C32.6069 6.08381 31.6841 6.31806 30.8437 6.65673C27.6058 7.96152 25.9271 10.547 25.9277 14.2283C25.928 16.2753 26.4108 17.9239 27.4134 19.3012C27.6726 19.6573 28.3811 20.3829 28.7359 20.6557C30.1639 21.7538 31.9708 22.4021 34.186 22.6112C34.7486 22.6643 36.3508 22.6278 36.9281 22.5487ZM30.7301 12.6971C30.7301 12.5536 30.8906 12.0517 31.0204 11.789C31.5096 10.7992 32.6103 10.0699 34.0238 9.79909C34.3565 9.73534 34.5218 9.72444 35.1595 9.72421C35.9673 9.7239 36.2108 9.75819 36.788 9.95336C38.1375 10.4097 39.2053 11.5485 39.2688 12.599L39.2785 12.7593L35.0043 12.7676L30.7301 12.776L30.7301 12.6971ZM11.4227 17.9505C11.4229 15.3623 11.4359 13.4995 11.4554 13.271C11.5214 12.4981 11.6525 11.9475 11.8944 11.4272C12.3987 10.3424 13.284 9.762 14.6242 9.63741C15.5258 9.55359 16.5414 9.69913 17.1174 9.99467C17.8259 10.3582 18.2751 10.9658 18.4929 11.8549C18.6375 12.4452 18.6352 12.3627 18.6485 17.4058L18.6614 22.2503H20.9964H23.3315L23.331 17.1417C23.3304 11.2384 23.3264 11.1388 23.0394 9.98556C22.4278 7.52802 20.9267 6.23053 18.2207 5.82038C17.6551 5.73466 15.8541 5.73446 15.3164 5.82007C13.8141 6.0592 12.5639 6.57677 11.6577 7.33465L11.4224 7.53141V3.7822V0.0330131H9.08599H6.74959V11.1417V22.2503H9.08599H11.4224L11.4227 17.9505ZM11.4227 43.5681C11.4229 41.0019 11.4359 39.1499 11.4554 38.9216C11.5214 38.1487 11.6525 37.5981 11.8944 37.0778C12.3987 35.993 13.284 35.4126 14.6242 35.288C15.5258 35.2042 16.5414 35.3497 17.1174 35.6453C17.8259 36.0088 18.2751 36.6164 18.4929 37.5056C18.6374 38.0956 18.6352 38.0152 18.6485 43.0234L18.6614 47.8349H15.0419H11.4224L11.4227 43.5681Z" fill="#F9FCFF" fill-opacity="0.75"/>
</g>
<defs>
<clipPath id="clip0_8295_3773">
<rect width="120" height="48" fill="white"/>
</clipPath>
</defs>
</svg>
