<svg width="471" height="48" viewBox="0 0 471 48" fill="none" xmlns="http://www.w3.org/2000/svg">
<path d="M4.80522 47.891C3.57473 47.6241 2.72083 47.1749 1.83691 46.3297C0.868273 45.4034 0.259494 44.2539 0.0611121 42.9767C0.0053367 42.6176 -0.00943598 37.3796 0.00541829 23.2328L0.0256463 3.97776L0.183473 3.51056C0.74897 1.83663 1.95667 0.662547 3.62972 0.160214C4.01237 0.0453216 5.29929 0.0392165 32.5791 0.0228313C48.2809 0.013404 61.1279 0.0261691 61.1279 0.0511556C61.1279 0.0761839 59.6963 2.8545 57.9466 6.22524L54.7652 12.3539H33.5524H12.3395V15.157V17.9602H35.9328H59.5261V24.1338V30.3075H35.9328H12.3395V33.0105V35.7136H35.9328H59.5261V41.8538V47.9941L32.3788 47.9888C9.50778 47.9843 5.16436 47.9689 4.80522 47.891ZM64.732 23.997V0L71.3228 0.0238179C78.5107 0.0498055 78.2906 0.0389598 80.0493 0.452877C82.3869 1.00304 84.7168 2.14458 86.59 3.65747C88.0141 4.80768 88.3436 5.20486 98.0663 17.493C103.164 23.9353 107.682 29.6101 108.108 30.1037C109.004 31.1434 110.425 32.5939 111.051 33.1093L111.485 33.4664L111.502 16.7365L111.518 0.00660688H118.526H125.534V24.0033V48L118.743 47.9775C112.12 47.9555 111.932 47.9514 111.151 47.8103C107.588 47.1667 104.524 45.5502 102.17 43.0713C101.69 42.5659 90.2095 28.071 84.052 20.1961C81.7608 17.2658 79.8914 15.3031 78.816 14.6987L78.5424 14.5449L78.5617 31.2695L78.5809 47.9941H71.6565L64.732 47.9941L64.732 23.997ZM153.409 47.8875C151.219 47.4918 149.354 46.1126 148.338 44.1365C148.031 43.5382 127.803 0.103215 127.803 0.0408825C127.803 0.0217359 131.265 0.0136883 135.495 0.0229904L143.187 0.0399659L151.202 17.5264C155.611 27.1439 159.288 35.0996 159.374 35.2058C159.753 35.6706 160.514 35.7698 161.038 35.4227C161.258 35.2775 161.365 35.1211 161.631 34.5617C161.81 34.1858 165.449 26.2571 169.718 16.9424L177.48 0.00660688H185.144H192.808L192.652 0.357001C192.057 1.69058 172.572 43.6201 172.313 44.1231C171.441 45.821 170.053 47.0122 168.217 47.6383C167.179 47.9925 167.131 47.9946 160.281 47.9881C155.113 47.9832 153.835 47.9645 153.409 47.8875ZM197.081 24.0004V0.00660688H203.989H210.897V24.0004V47.9941H203.989H197.081V24.0004ZM217.905 41.8546V35.7136H241.765H265.625V33.0113V30.3091L244.218 30.2902L222.81 30.2712L222.343 30.1317C221.141 29.7727 220.197 29.2084 219.461 28.4091C218.941 27.844 218.657 27.4011 218.337 26.6579C217.884 25.6013 217.897 25.9036 217.922 17.493C217.944 9.95893 217.945 9.9143 218.092 9.27193C218.5 7.48209 219.217 5.90538 220.209 4.61181C222.188 2.03317 225.013 0.432223 228.217 0.0747444C228.954 -0.00754854 279.463 -0.0203898 279.43 0.0617279C279.418 0.0920538 277.952 2.8662 276.174 6.22653L272.94 12.3362L252.21 12.3019C240.808 12.283 231.367 12.2885 231.231 12.314C230.92 12.3725 230.535 12.7056 230.377 13.0541C230.273 13.2826 230.255 13.5079 230.254 14.5958C230.253 15.2966 230.272 16.3253 230.296 16.8818L230.34 17.8935H251.281C265.838 17.8935 272.382 17.9153 272.745 17.9652C273.032 18.0046 273.544 18.1282 273.883 18.2399C275.708 18.8421 277.172 20.3828 277.722 22.279L277.872 22.799V30.2741V37.7492L277.718 38.5118C276.77 43.1959 273.282 46.7145 268.533 47.778L267.728 47.9584L242.816 47.977L217.905 47.9957V41.8546ZM278.768 47.5772C280.162 44.5033 299.075 3.84991 299.27 3.50853C300.141 1.98039 301.811 0.723514 303.635 0.223291L304.302 0.0402205L310.977 0.0400996C318.394 0.0399619 318.015 0.0192016 319.284 0.496006C320.866 1.09007 322.312 2.39586 323.08 3.9222C323.345 4.44893 343.58 47.9204 343.58 47.9626C343.58 47.9799 340.119 47.9932 335.888 47.9921L328.196 47.99L320.187 30.5052C315.782 20.8885 312.105 12.9267 312.016 12.8122C311.823 12.5626 311.398 12.3567 311.077 12.3567C310.776 12.3567 310.357 12.5516 310.133 12.7959C310.029 12.9091 306.667 20.164 301.942 30.4742L293.927 47.9606L286.253 47.9776L278.579 47.9946L278.768 47.5772ZM354.31 47.8924C352.476 47.6408 350.591 46.8929 349.053 45.8063C348.24 45.2318 346.877 43.8691 346.301 43.0552C345.374 41.7435 344.681 40.1514 344.329 38.5206L344.147 37.6825V23.9336V10.1848L344.329 9.34371C344.838 6.9905 345.838 5.14755 347.514 3.47507C348.582 2.40936 349.359 1.83976 350.555 1.2471C351.846 0.606791 353.112 0.236222 354.559 0.0747316C354.95 0.0310782 363.696 0.00750884 379.637 0.00715428L404.115 0.00673418L401.028 6.18037L397.942 12.354H377.7C359.635 12.354 357.432 12.3651 357.212 12.4567C356.895 12.5891 356.744 12.7296 356.588 13.0355C356.465 13.2755 356.461 13.6248 356.461 24.4984V35.7137H373.848H391.234V32.9439V30.1741H384.793H378.353V24.0672V17.9603H390.967H403.581V27.4403C403.581 33.7069 403.557 37.14 403.51 37.5684C402.985 42.3455 399.57 46.36 394.986 47.5869C393.511 47.9819 395.183 47.9513 374.181 47.9671C358.469 47.9788 354.841 47.9653 354.31 47.8924ZM414.534 47.8911C413.304 47.6242 412.45 47.175 411.566 46.3297C410.597 45.4035 409.989 44.254 409.79 42.9768C409.734 42.6177 409.72 37.3797 409.734 23.2329L409.754 3.97776L409.912 3.51056C410.479 1.8344 411.677 0.67059 413.359 0.162671C413.742 0.0468649 414.968 0.0409814 442.308 0.023716C458.01 0.0137882 470.857 0.0262172 470.857 0.051162C470.857 0.0761902 469.425 2.85451 467.675 6.22526L464.494 12.3539H443.281H422.068V15.157V17.9602H445.662H469.255V24.1338V30.3075H445.662H422.068V33.0105V35.7136H445.662H469.255V41.8538V47.9941L442.108 47.9888C419.237 47.9843 414.893 47.969 414.534 47.8911Z" fill="#F9FCFF" fill-opacity="0.74"/>
</svg>
