<svg width="34" height="35" viewBox="0 0 34 35" fill="none" xmlns="http://www.w3.org/2000/svg">
<path d="M30.3536 28.7358L30.1768 28.9126L28.3657 30.7237L28.1889 30.9004L28.0121 30.7236L22.6884 25.3987C20.6358 26.9806 18.1145 27.8389 15.5188 27.8352M30.3536 28.7358L27.2883 16.0657C27.2881 9.56919 22.0157 4.29688 15.5191 4.29688C9.02251 4.29688 3.75 9.56938 3.75 16.066C3.75 22.5625 9.02232 27.835 15.5188 27.8352M30.3536 28.7358L30.1768 28.559M30.3536 28.7358L30.1768 28.559M15.5188 27.8352L15.5191 27.5852V27.8352C15.519 27.8352 15.5189 27.8352 15.5188 27.8352ZM30.1768 28.559L24.8518 23.2353M30.1768 28.559L24.8518 23.2353M24.8518 23.2353C26.4337 21.1828 27.2919 18.6616 27.2883 16.066L24.8518 23.2353ZM24.2285 16.066V16.0664C24.2317 18.3305 23.3504 20.5063 21.7727 22.13C21.7722 22.1304 21.7718 22.1309 21.7714 22.1313L21.5844 22.3183C21.584 22.3187 21.5836 22.3191 21.5831 22.3195C19.9594 23.8973 17.7836 24.7785 15.5195 24.7754H15.5191C10.7078 24.7754 6.80981 20.8773 6.80981 16.066C6.80981 11.2547 10.7078 7.35669 15.5191 7.35669C20.3305 7.35669 24.2285 11.2547 24.2285 16.066Z" fill="#A4A4A4" stroke="#A4A4A4" stroke-width="0.5"/>
</svg>
